#N canvas 334 25 1792 1067 12;
#X declare -path lib/quacktrip~ -path lib;
#X obj 523 264 declare -path lib/quacktrip~ -path lib;
#X floatatom 99 16 3 0 100 0 - #0-lvl-set #0-lvl;
#X obj 52 25 bng 15 250 50 0 \$0-mute \$0-mute-set empty 0 0 0 12 -262144
-1 -1;
#X obj 17 106 hsl 20 12 1 9 0 0 \$0-pan \$0-pan-set empty 0 0 0 10
-262144 -1 -1 950 1;
#X obj 43 106 bng 12 250 50 0 \$0-ctr-pan \$0-ctr-pan-set empty 0 0
0 12 -262144 -1 -1;
#X obj 98 41 vu 8 80 \$0-vu11 empty -1 -8 0 10 -66577 -1 0 0;
#X text 17 22 mute;
#X obj 113 41 vu 8 80 \$0-vu12 empty -1 -8 0 10 -66577 -1 0 0;
#X floatatom 94 126 2 1 99 0 - #0-ch11-set #0-ch11;
#X floatatom 110 126 2 1 99 0 - #0-ch12-set #0-ch12;
#X text 224 414 mono;
#X obj 257 416 tgl 15 0 \$0-mono \$0-mono-set empty 17 7 0 10 -262144
-1 -1 0 1;
#X text 75 125 ch;
#X text 12 89 balance;
#N canvas 751 118 1809 1071 audio-out 0;
#X obj 1213 483 t b;
#X obj 1213 430 f;
#X obj 1213 508 f;
#X msg 1327 507 0;
#X obj 1213 460 moses 1;
#X obj 1327 479 t b f;
#X obj 1293 440 moses 1;
#X obj 226 172 inlet~;
#X msg 1141 267 \; pd dsp 1;
#X obj 226 194 hip~ 3;
#X obj 1145 131 r \$0-lvl;
#X obj 1144 158 f;
#X obj 1157 47 r \$0-ctr-pan;
#X obj 1292 411 r \$0-lvl;
#X obj 1213 534 s \$0-lvl;
#X obj 1213 403 r \$0-mute;
#X obj 1157 96 s \$0-pan;
#X obj 1144 183 max 0;
#X obj 1195 70 loadbang;
#X text 1233 371 MUTE logic;
#X obj 912 306 line~;
#X obj 912 266 pack 0 30, f 5;
#X obj 260 520 *~;
#X obj 168 654 abs~;
#X obj 168 679 slop~ 0 0 0.3 0 1e+09;
#X obj 823 683 metro 100;
#X obj 175 764 snapshot~;
#X obj 175 789 rmstodb;
#X obj 175 814 moses 1;
#X msg 176 849 -100;
#X obj 223 844 - 88;
#X msg 1157 72 5;
#X obj 278 170 inlet~;
#X obj 278 192 hip~ 3;
#X obj 305 522 *~;
#X obj 825 635 loadbang;
#X obj 326 651 abs~;
#X obj 326 676 slop~ 0 0 0.3 0 1e+09;
#X obj 332 762 snapshot~;
#X obj 332 787 rmstodb;
#X obj 332 812 moses 1;
#X msg 333 847 -100;
#X obj 380 842 - 88;
#X obj 1142 211 expr pow($f1*0.02 \, 4);
#X obj 208 655 dac~ 1;
#X obj 365 651 dac~ 2;
#X msg 350 584 set \$1;
#X msg 432 583 set \$1;
#X obj 319 238 r \$0-mono;
#X obj 282 243 -~;
#X obj 319 263 * 0.5;
#X obj 282 268 *~ 0;
#X obj 222 302 -~;
#X obj 269 300 +~;
#X msg 663 568 set \$1;
#X msg 736 568 set \$1;
#X obj 350 559 r \$0-ch11;
#X obj 663 543 r \$0-ch21;
#X obj 736 544 r \$0-ch22;
#X obj 501 650 abs~;
#X obj 501 675 slop~ 0 0 0.3 0 1e+09;
#X obj 507 761 snapshot~;
#X obj 507 786 rmstodb;
#X obj 507 811 moses 1;
#X msg 508 846 -100;
#X obj 555 841 - 88;
#X obj 174 885 s \$0-vu11;
#X obj 331 883 s \$0-vu12;
#X obj 506 882 s \$0-vu21;
#X obj 667 651 abs~;
#X obj 667 676 slop~ 0 0 0.3 0 1e+09;
#X obj 673 762 snapshot~;
#X obj 673 787 rmstodb;
#X obj 673 812 moses 1;
#X msg 674 847 -100;
#X obj 721 842 - 88;
#X obj 672 883 s \$0-vu22;
#X obj 410 165 inlet~;
#X obj 410 187 hip~ 3;
#X obj 462 163 inlet~;
#X obj 462 185 hip~ 3;
#X obj 503 231 r \$0-mono;
#X obj 466 236 -~;
#X obj 503 256 * 0.5;
#X obj 466 261 *~ 0;
#X obj 406 295 -~;
#X obj 458 297 +~;
#X obj 521 520 *~;
#X obj 566 522 *~;
#X obj 540 650 dac~ 3;
#X obj 706 651 dac~ 4;
#X obj 432 558 r \$0-ch12;
#X connect 0 0 2 0;
#X connect 1 0 4 0;
#X connect 2 0 14 0;
#X connect 3 0 14 0;
#X connect 4 0 0 0;
#X connect 4 1 5 0;
#X connect 5 0 3 0;
#X connect 6 1 2 1;
#X connect 7 0 9 0;
#X connect 9 0 52 0;
#X connect 9 0 49 0;
#X connect 10 0 11 0;
#X connect 11 0 17 0;
#X connect 12 0 31 0;
#X connect 13 0 1 1;
#X connect 13 0 6 0;
#X connect 15 0 1 0;
#X connect 17 0 43 0;
#X connect 18 0 31 0;
#X connect 20 0 22 1;
#X connect 20 0 34 1;
#X connect 20 0 87 1;
#X connect 20 0 88 1;
#X connect 21 0 20 0;
#X connect 22 0 23 0;
#X connect 22 0 44 0;
#X connect 23 0 24 0;
#X connect 24 0 26 0;
#X connect 25 0 26 0;
#X connect 25 0 38 0;
#X connect 25 0 61 0;
#X connect 25 0 71 0;
#X connect 26 0 27 0;
#X connect 27 0 28 0;
#X connect 28 0 29 0;
#X connect 28 1 30 0;
#X connect 29 0 66 0;
#X connect 30 0 66 0;
#X connect 31 0 16 0;
#X connect 32 0 33 0;
#X connect 33 0 53 0;
#X connect 33 0 49 1;
#X connect 34 0 36 0;
#X connect 34 0 45 0;
#X connect 35 0 25 0;
#X connect 36 0 37 0;
#X connect 37 0 38 0;
#X connect 38 0 39 0;
#X connect 39 0 40 0;
#X connect 40 0 41 0;
#X connect 40 1 42 0;
#X connect 41 0 67 0;
#X connect 42 0 67 0;
#X connect 43 0 21 0;
#X connect 43 0 8 0;
#X connect 46 0 44 0;
#X connect 47 0 45 0;
#X connect 48 0 50 0;
#X connect 49 0 51 0;
#X connect 50 0 51 1;
#X connect 51 0 53 1;
#X connect 51 0 52 1;
#X connect 52 0 22 0;
#X connect 53 0 34 0;
#X connect 54 0 89 0;
#X connect 55 0 90 0;
#X connect 56 0 46 0;
#X connect 57 0 54 0;
#X connect 58 0 55 0;
#X connect 59 0 60 0;
#X connect 60 0 61 0;
#X connect 61 0 62 0;
#X connect 62 0 63 0;
#X connect 63 0 64 0;
#X connect 63 1 65 0;
#X connect 64 0 68 0;
#X connect 65 0 68 0;
#X connect 69 0 70 0;
#X connect 70 0 71 0;
#X connect 71 0 72 0;
#X connect 72 0 73 0;
#X connect 73 0 74 0;
#X connect 73 1 75 0;
#X connect 74 0 76 0;
#X connect 75 0 76 0;
#X connect 77 0 78 0;
#X connect 78 0 85 0;
#X connect 78 0 82 0;
#X connect 79 0 80 0;
#X connect 80 0 86 0;
#X connect 80 0 82 1;
#X connect 81 0 83 0;
#X connect 82 0 84 0;
#X connect 83 0 84 1;
#X connect 84 0 86 1;
#X connect 84 0 85 1;
#X connect 85 0 87 0;
#X connect 86 0 88 0;
#X connect 87 0 59 0;
#X connect 87 0 89 0;
#X connect 88 0 69 0;
#X connect 88 0 90 0;
#X connect 91 0 47 0;
#X restore 385 873 pd audio-out;
#N canvas 551 166 1435 247 more-setctl 0;
#X obj 25 29 r \$0-lvl;
#X msg 25 54 set \$1;
#X obj 25 79 s \$0-lvl-set;
#X msg 121 53 set \$1;
#X obj 121 28 r \$0-pan;
#X obj 121 78 s \$0-pan-set;
#X msg 223 54 set \$1;
#X obj 223 29 r \$0-mono;
#X obj 223 79 s \$0-mono-set;
#X msg 661 55 set \$1;
#X msg 755 56 set \$1;
#X obj 1047 22 loadbang;
#X msg 1047 47 1;
#X msg 1081 49 2;
#X msg 334 53 set \$1;
#X obj 334 28 r \$0-fifo-size;
#X msg 481 53 set \$1;
#X obj 481 28 r \$0-connected;
#X obj 481 78 s \$0-connected-set;
#X obj 334 78 s \$0-fifo-size-set;
#X msg 1128 51 3;
#X msg 1193 49 4;
#X obj 661 30 r \$0-ch11;
#X obj 755 31 r \$0-ch12;
#X obj 661 104 s \$0-ch11-set;
#X obj 755 105 s \$0-ch12-set;
#X obj 858 105 s \$0-ch21-set;
#X obj 962 106 s \$0-ch22-set;
#X msg 838 52 set \$1;
#X msg 932 53 set \$1;
#X obj 838 27 r \$0-ch21;
#X obj 932 28 r \$0-ch22;
#X connect 0 0 1 0;
#X connect 1 0 2 0;
#X connect 3 0 5 0;
#X connect 4 0 3 0;
#X connect 6 0 8 0;
#X connect 7 0 6 0;
#X connect 9 0 24 0;
#X connect 10 0 25 0;
#X connect 11 0 12 0;
#X connect 11 0 13 0;
#X connect 11 0 20 0;
#X connect 11 0 21 0;
#X connect 12 0 24 0;
#X connect 13 0 25 0;
#X connect 14 0 19 0;
#X connect 15 0 14 0;
#X connect 16 0 18 0;
#X connect 17 0 16 0;
#X connect 20 0 26 0;
#X connect 21 0 27 0;
#X connect 22 0 9 0;
#X connect 23 0 10 0;
#X connect 28 0 26 0;
#X connect 29 0 27 0;
#X connect 30 0 28 0;
#X connect 31 0 29 0;
#X restore 656 333 pd more-setctl;
#N canvas 0 195 668 550 to-quacktrip 0;
#X obj 20 512 outlet;
#X obj 147 363 sel 1 0;
#X msg 153 435 off;
#X msg 337 438 nbuf \$1;
#X msg 34 432 client \$2 \$3;
#X obj 37 400 pack 0 s 0;
#X obj 71 159 r \$1-server;
#X obj 147 337 r \$1-onoff;
#X obj 240 363 loadbang;
#X obj 337 409 r \$0-fifo-size;
#X obj 124 188 r \$1-port;
#X obj 155 225 r \$1-this-caller;
#X obj 156 258 t b f;
#X msg 239 389 block 64 \, nchan 0 \, repeat 0;
#X obj 123 295 expr $f1 + 10*\$2 + $f2 + 200*($f2>10);
#X connect 1 0 5 0;
#X connect 1 1 2 0;
#X connect 2 0 0 0;
#X connect 3 0 0 0;
#X connect 4 0 0 0;
#X connect 5 0 4 0;
#X connect 6 0 5 1;
#X connect 7 0 1 0;
#X connect 8 0 13 0;
#X connect 9 0 3 0;
#X connect 10 0 14 0;
#X connect 11 0 12 0;
#X connect 12 0 14 0;
#X connect 12 1 14 1;
#X connect 13 0 0 0;
#X connect 14 0 5 2;
#X restore 502 478 pd to-quacktrip;
#X obj 374 528 quacktrip~;
#X obj 615 635 change;
#X floatatom 77 215 7 0 0 0 - #0-packets-in-set #0-packets-in;
#X floatatom 77 237 5 0 0 0 - #0-dropouts-set #0-dropouts;
#X floatatom 54 191 3 0 0 0 - #0-min-fill-set #0-min-fill;
#X text 16 192 fill;
#X obj 439 293 loadbang;
#X obj 416 295 bng 15 250 50 0 empty empty empty 17 7 0 10 -262144
-1 -1;
#X obj 1139 659 b;
#X obj 1142 729 f;
#X obj 1174 730 + 1;
#X obj 79 258 bng 15 250 50 0 \$0-reset-packets \$0-reset-packets-set
empty 17 7 0 10 -262144 -1 -1;
#X text 38 256 reset;
#X msg 1089 659 0;
#X obj 1049 702 b;
#X obj 1049 727 f;
#X obj 1077 728 + 1;
#X obj 1049 756 speedlim 100;
#X obj 1178 637 s \$0-calling;
#X obj 1049 783 s \$0-packets-in-set;
#X obj 1142 756 s \$0-dropouts-set;
#X obj 1297 644 s \$0-connected-set;
#X obj 1437 615 print quack-panel-\$1;
#X obj 807 417 symbol;
#X obj 807 442 s \$0-server;
#X obj 890 417 symbol;
#X obj 890 442 s \$0-call-name;
#X obj 1288 696 sel 0;
#X obj 1288 721 0;
#X obj 1288 746 s \$0-fill-set;
#X obj 1199 668 s \$0-server-answered;
#X obj 984 895 s \$0-remote-sr-set;
#X floatatom 13 306 5 0 0 0 - #0-remote-sr-set #0-remote-sr;
#X obj 1025 668 route 0;
#X obj 615 712 line~;
#X obj 434 822 rpole~;
#X obj 615 660 sel 1 0;
#X obj 434 786 *~;
#X obj 615 737 *~ -1;
#X obj 615 767 +~ 1;
#X obj 615 685 1 5;
#X obj 644 685 0.0005;
#X obj 385 822 rpole~;
#X obj 385 785 *~;
#X floatatom 66 307 3 0 0 0 - #0-remote-ch-set #0-remote-ch;
#X floatatom 13 364 3 0 0 0 - #0-remote-blk-set #0-remote-blk;
#X obj 956 814 unpack 0 0 0 0 0;
#X obj 1080 817 s \$0-remote-blk-set;
#X text 12 272 sample rate, f 6;
#X text 13 329 block size, f 5;
#X text 60 286 channels;
#X text 62 329 mbits per sec, f 7;
#X obj 45 809 route server call-name on-off block nchan 2x;
#X floatatom 65 364 5 0 0 0 - #0-remote-kbits-set #0-remote-kbits;
#X obj 937 591 route got-packet drop late miss request-call no-peer-yet
running bw, f 68;
#X obj 147 852 s \$0-onoff;
#X text 12 236 dropouts;
#X obj 44 784 r receiver-\$1-\$2;
#X floatatom 429 358 5 0 0 0 - - -;
#X floatatom 52 127 3 3 100 0 - #0-fifo-size-set #0-fifo-size;
#X text 18 214 packets;
#X text 14 149 ---readouts---;
#X symbolatom 14 168 16 0 0 0 - #1-#2-channel-name-set #1-#2-channel-name
;
#X text 10 127 delay;
#X obj 818 370 setctl \$1-\$2-channel-name;
#X obj 415 328 pack \$0 \$1 \$2;
#X msg 416 384 \; \$1-fifo-size 15 \; \$2-\$3-channel-name symbol \;
;
#X obj 1311 866 == 1;
#X obj 845 310 setctl \$0-remote-ch;
#X obj 1168 904 s \$0-remote-ch;
#X obj 1398 680 unpack 0 0 0 0;
#X obj 1460 741 s \$0-min-fill-set;
#X obj 1481 712 s \$0-max-fill-set;
#X floatatom 94 191 3 0 0 0 - #0-max-fill-set #0-max-fill;
#X text 79 190 -;
#X obj 1311 891 change;
#X obj 1311 916 s \$0-mono;
#X obj 80 18 vsl 15 101 0 100 0 0 \$0-lvl \$0-lvl-set empty 0 -9 0
10 -262144 -1 -1 3700 1;
#X text 25 59 gain-->;
#X text 18 47 normal;
#X obj 511 521 print foo;
#X obj 1396 772 s \$0-remote-kbits-set;
#X obj 1398 747 * 1000;
#X obj 548 819 rpole~;
#X obj 548 783 *~;
#X obj 499 819 rpole~;
#X obj 499 782 *~;
#X floatatom 134 17 3 0 100 0 - #0-lvl-set #0-lvl;
#X obj 133 42 vu 8 80 \$0-vu21 empty -1 -8 0 10 -66577 -1 0 0;
#X obj 148 42 vu 8 80 \$0-vu22 empty -1 -8 0 10 -66577 -1 0 0;
#X floatatom 129 127 2 1 99 0 - #0-ch21-set #0-ch21;
#X floatatom 145 127 2 1 99 0 - #0-ch22-set #0-ch22;
#X obj 861 896 s \$0-happening;
#N canvas 399 165 1125 569 receiver-ui 1;
#X obj 164 240 r \$1-\$2-channel-name;
#X obj 248 284 select -;
#X obj 196 497 s receiver-values;
#X obj 671 351 loadbang;
#X obj 367 404 spigot;
#X msg 449 428 1;
#X obj 509 442 bng 15 250 50 0 empty empty empty 17 7 0 10 -262144
-1 -1;
#X msg 440 394 0;
#X obj 497 371 delay 1;
#X obj 563 416 metro 500;
#X obj 595 371 bng 15 250 50 0 empty empty empty 17 7 0 10 -262144
-1 -1;
#X obj 504 239 r \$0-packets-in;
#X obj 295 365 pack \$0 s f;
#X obj 369 240 r \$0-happening;
#X obj 342 308 sel 1;
#X connect 0 0 1 0;
#X connect 1 1 12 1;
#X connect 3 0 9 0;
#X connect 4 0 2 0;
#X connect 5 0 4 1;
#X connect 6 0 8 0;
#X connect 7 0 4 1;
#X connect 8 0 7 0;
#X connect 9 0 5 0;
#X connect 9 0 6 0;
#X connect 10 0 9 0;
#X connect 11 0 12 2;
#X connect 12 0 4 0;
#X connect 13 0 14 0;
#X connect 14 0 12 0;
#X restore 1289 330 pd receiver-ui;
#X connect 16 0 17 4;
#X connect 17 0 60 0;
#X connect 17 1 54 0;
#X connect 17 2 103 0;
#X connect 17 3 101 0;
#X connect 17 4 71 0;
#X connect 18 0 53 0;
#X connect 23 0 24 0;
#X connect 24 0 82 0;
#X connect 25 0 26 0;
#X connect 26 0 27 0;
#X connect 26 0 37 0;
#X connect 27 0 26 1;
#X connect 28 0 30 0;
#X connect 30 0 32 0;
#X connect 30 0 26 0;
#X connect 31 0 32 0;
#X connect 32 0 33 0;
#X connect 32 0 34 0;
#X connect 33 0 32 1;
#X connect 34 0 36 0;
#X connect 40 0 41 0;
#X connect 42 0 43 0;
#X connect 44 0 45 0;
#X connect 45 0 46 0;
#X connect 50 1 31 0;
#X connect 51 0 55 0;
#X connect 51 0 54 1;
#X connect 51 0 60 1;
#X connect 51 0 103 1;
#X connect 51 0 101 1;
#X connect 52 0 14 1;
#X connect 53 0 57 0;
#X connect 53 1 58 0;
#X connect 54 0 52 0;
#X connect 55 0 56 0;
#X connect 56 0 52 1;
#X connect 56 0 59 1;
#X connect 56 0 102 1;
#X connect 56 0 100 1;
#X connect 57 0 51 0;
#X connect 58 0 51 0;
#X connect 59 0 14 0;
#X connect 60 0 59 0;
#X connect 63 0 18 0;
#X connect 63 0 109 0;
#X connect 63 2 48 0;
#X connect 63 3 84 0;
#X connect 63 3 86 0;
#X connect 63 4 64 0;
#X connect 69 2 72 0;
#X connect 71 0 50 0;
#X connect 71 0 63 0;
#X connect 71 1 25 0;
#X connect 71 2 25 0;
#X connect 71 3 25 0;
#X connect 71 4 35 0;
#X connect 71 5 47 0;
#X connect 71 6 44 0;
#X connect 71 6 38 0;
#X connect 71 7 87 0;
#X connect 71 8 39 0;
#X connect 74 0 69 0;
#X connect 82 0 83 0;
#X connect 82 0 75 0;
#X connect 84 0 92 0;
#X connect 87 0 99 0;
#X connect 87 2 88 0;
#X connect 87 3 89 0;
#X connect 92 0 93 0;
#X connect 99 0 98 0;
#X connect 100 0 14 3;
#X connect 101 0 100 0;
#X connect 102 0 14 2;
#X connect 103 0 102 0;
#X coords 0 -1 1 1 170 390 1 0 0;
